# xmcd
#
# Track frame offsets: 
#        150
#        11515
#        23715
#        34197
#        45365
#        55112
#        64395
#        75017
#        84990
#        94980
#        105982
#        115540
#        125755
#        137112
#
# Disc length: 1964 seconds
#
# Revision: 2
# Processed by: cddbd v1.4PL0 Copyright (c) Steve Scherf et al.
# Submitted via: ExactAudioCopy v0.90a11
#
DISCID=a207aa0e
DTITLE=Buck Owens - Open Up Your Heart
DYEAR=1900
DGENRE=
TTITLE0=Open Up Your Heart
TTITLE1=Congratulations, You're Absolutely Right
TTITLE2=Think Of Me
TTITLE3=In The Palm Of Your Hand
TTITLE4=You, You, Only You
TTITLE5=Sam's Place
TTITLE6=Waitin' In Your Welfare Line
TTITLE7=A Devil Like Me (Needs An Angel Like You)
TTITLE8=Heart Of Glass
TTITLE9=Cadillac Lane
TTITLE10=No More Me And You
TTITLE11=GoodBye, Good Luck, God Bless You
TTITLE12=Open Up Your Heart (Single Version)
TTITLE13=Think Of Me (Single Version)
EXTD=Buck Owens and his Buckaroos - Open Up Your Heart\nAll tracks rec
EXTD=orded at Capitol Recording Studios, Hollywood CA\nOriginally rele
EXTD=ased as Capitol LP#ST 2640 on December 27 ,1966
EXTT0=
EXTT1=
EXTT2=
EXTT3=
EXTT4=
EXTT5=
EXTT6=
EXTT7=
EXTT8=
EXTT9=
EXTT10=
EXTT11=
EXTT12=
EXTT13=
PLAYORDER=
